:version 1.10
:name ASF
:units
  mass 1
  length 1
  angle deg
:documentation
  ASF file generated by Kaydara
:root
  axis xyz
  order  tx ty tz rx ry rz
  position 0 0 0
  orientation 0 0 0
:bonedata
  begin
    id 1
    name LeftUpLegDummy
    direction 1 -2.30186e-007 -8.31532e-007
    length 2.93387
    axis 0 0 0 xyz
  end
  begin
    id 2
    name LeftUpLeg
    direction -1.82929e-007 -1 -1.48925e-009
    length 17.3336
    axis -3.48766 0.00143442 -0.000521554 xyz
    dof rx ry rz
  end
  begin
    id 3
    name LeftLeg
    direction -1.82929e-007 -1 -5.23717e-011
    length 14.9995
    axis 3.68178 -0.00654042 -0.000282425 xyz
    dof rx ry rz
  end
  begin
    id 4
    name LeftFoot
    direction 8.31532e-007 -4.54534e-011 1
    length 6.74421
    axis 1.87234e-006 4.66016e-005 -5.96866e-006 xyz
    dof rx ry rz
  end
  begin
    id 5
    name LeftToes
    direction 0.00818058 -0.00485161 0.999955
    length 3.85048
    axis 1.06247e-005 4.65869e-005 -5.96999e-006 xyz
    dof rx ry rz
  end
  begin
    id 6
    name SpineDummy
    direction -5.8607e-008 0.943407 -0.331637
    length 5.93572
    axis 0 0 0 xyz
  end
  begin
    id 7
    name Spine
    direction -1.04988e-007 0.999988 0.00495137
    length 10.1015
    axis -0.001389 0.000121417 6.61666e-006 xyz
    dof rx ry rz
  end
  begin
    id 8
    name Spine1
    direction 0 0 0
    length 0
    axis -0.001389 0.00012144 6.56766e-006 xyz
    dof rx ry rz
  end
  begin
    id 9
    name RightShoulderDummy
    direction -0.98348 0.17941 -0.0240696
    length 3.59882
    axis -0.001389 0.00012144 6.56766e-006 xyz
  end
  begin
    id 10
    name RightShoulder
    direction -0.978693 0.204882 0.0135597
    length 2.70001
    axis 0.215806 0.000203631 -0.00679732 xyz
    dof rx ry rz
  end
  begin
    id 11
    name RightArm
    direction -1 3.85509e-006 8.31394e-007
    length 10.2459
    axis -23.2009 -0.134239 -0.964098 xyz
    dof rx ry rz
  end
  begin
    id 12
    name RightForeArm
    direction -1 3.85569e-006 8.3129e-007
    length 8.16799
    axis -9.92322 0.0658061 0.17887 xyz
    dof rx ry rz
  end
  begin
    id 13
    name RightHand
    direction -0.992843 -0.0414604 0.112003
    length 5.28593
    axis -0.00960638 0.00330669 -0.185225 xyz
    dof rx ry rz
  end
  begin
    id 14
    name LeftShoulder1Dummy
    direction 0.983523 0.179172 -0.0240748
    length 3.59866
    axis -0.001389 0.00012144 6.56766e-006 xyz
  end
  begin
    id 15
    name LeftShoulder1
    direction 0.978627 0.205195 0.0135605
    length 2.70019
    axis -0.001389 0.00012144 6.57583e-006 xyz
    dof rx ry rz
  end
  begin
    id 16
    name LeftArm
    direction 1 3.51895e-006 -8.60188e-007
    length 10.2459
    axis -23.1894 0.134785 0.967513 xyz
    dof rx ry rz
  end
  begin
    id 17
    name LeftForeArm
    direction 1 3.51921e-006 -7.32029e-007
    length 8.16799
    axis -9.91835 -0.0656957 -0.177789 xyz
    dof rx ry rz
  end
  begin
    id 18
    name LeftHand
    direction 0.992938 -0.0411636 0.11126
    length 5.32135
    axis -0.00960237 -0.00340661 0.185177 xyz
    dof rx ry rz
  end
  begin
    id 19
    name HEadDummy
    direction 1.01974e-006 0.999861 -0.016675
    length 2.99946
    axis -0.001389 0.00012144 6.56766e-006 xyz
  end
  begin
    id 20
    name HEad
    direction -0.0222689 0.980941 0.193023
    length 5.12695
    axis -0.001389 0.00012144 6.56766e-006 xyz
    dof rx ry rz
  end
  begin
    id 21
    name RightUpLegDummy
    direction -1 2.30186e-007 8.31532e-007
    length 2.93387
    axis 0 0 0 xyz
  end
  begin
    id 22
    name RightUpLeg
    direction -1.82966e-007 -1 1.56832e-007
    length 17.3336
    axis -3.4909 -0.000906625 0.00028951 xyz
    dof rx ry rz
  end
  begin
    id 23
    name RightLeg
    direction -1.82786e-007 -1 -1.80317e-007
    length 14.9995
    axis 3.68513 0.0193739 -0.131021 xyz
    dof rx ry rz
  end
  begin
    id 24
    name RightFoot
    direction 8.31721e-007 -4.63324e-011 1
    length 6.74421
    axis 4.81691e-005 -0.120479 -0.188785 xyz
    dof rx ry rz
  end
  begin
    id 25
    name RightToes
    direction 0.00124746 -0.014064 0.9999
    length 3.85082
    axis 0.000481921 0.542163 -0.142575 xyz
    dof rx ry rz
  end
:hierarchy
  begin
    root LeftUpLegDummy SpineDummy RightUpLegDummy
    LeftUpLegDummy LeftUpLeg
    LeftUpLeg LeftLeg
    LeftLeg LeftFoot
    LeftFoot LeftToes
    SpineDummy Spine
    Spine Spine1
    Spine1 RightShoulderDummy LeftShoulder1Dummy HEadDummy
    RightShoulderDummy RightShoulder
    RightShoulder RightArm
    RightArm RightForeArm
    RightForeArm RightHand
    LeftShoulder1Dummy LeftShoulder1
    LeftShoulder1 LeftArm
    LeftArm LeftForeArm
    LeftForeArm LeftHand
    HEadDummy HEad
    RightUpLegDummy RightUpLeg
    RightUpLeg RightLeg
    RightLeg RightFoot
    RightFoot RightToes
  end

:SAMPLES-PER-SECOND 30
:FULLY-SPECIFIED
:DEGREES
89
root  -2.75706 33.9181 9.65216 3.06789 8.92053 -3.3749
LeftUpLeg  -23.8151 15.7749 5.87985
LeftLeg  7.42253 11.6256 0.75401
LeftFoot  4.19208 -0.0320096 0.874575
LeftToes  -10.314 1.92152e-006 4.03786e-008
Spine  2.77567 3.02362 1.41334
Spine1  5.41277 6.48949 2.36752
RightShoulder  0.0822028 4.55259 4.73184
RightArm  -20.0706 4.47761 63.4957
RightForeArm  20.1757 53.9012 14.0364
RightHand  1.18354 -15.1116 -8.53143
LeftShoulder1  0.00665066 0.861908 -8.20318
LeftArm  -20.7572 15.3782 -71.3893
LeftForeArm  25.7058 -23.015 -4.28829
LeftHand  0.061531 2.74718 2.06896
HEad  -6.35425 -16.796 0.0575301
RightUpLeg  -3.43238 -14.0728 3.66065
RightLeg  14.2497 19.4324 3.55927
RightFoot  -4.50495 -0.0767306 -1.57329
RightToes  -25.7114 -0.119507 -0.225764
90
root  -2.39296 33.8912 10.1795 3.17857 8.26169 -3.38384
LeftUpLeg  -21.9652 15.6288 5.89399
LeftLeg  7.26927 14.3994 0.892413
LeftFoot  5.26459 -0.0628553 1.3671
LeftToes  -8.12823 1.92152e-006 4.03786e-008
Spine  2.57256 2.85478 1.19805
Spine1  4.98917 6.12543 1.98421
RightShoulder  0.076524 4.60357 4.62984
RightArm  -19.5331 3.40291 64.0239
RightForeArm  20.4819 54.6368 14.4321
RightHand  1.15441 -15.066 -8.33966
LeftShoulder1  0.00764628 0.747705 -8.2032
LeftArm  -21.0362 15.8587 -71.0844
LeftForeArm  25.6973 -22.2155 -4.12251
LeftHand  0.0600704 2.74879 1.9516
HEad  -5.71989 -16.0385 0.0653031
RightUpLeg  -3.04404 -13.1692 3.01809
RightLeg  15.3695 19.1031 3.88016
RightFoot  -5.4023 -0.105889 -1.86683
RightToes  -25.904 -0.120427 -0.226794
91
root  -1.98604 33.8671 10.7392 3.33951 7.71898 -3.20913
LeftUpLeg  -19.9691 15.9626 5.49099
LeftLeg  6.3656 17.2531 0.795829
LeftFoot  8.75526 -0.209618 2.73769
LeftToes  -12.6014 1.92152e-006 4.03786e-008
Spine  2.34608 2.69576 0.920774
Spine1  4.51912 5.77723 1.48608
RightShoulder  0.0694204 4.57548 4.54073
RightArm  -18.7526 2.15236 64.3024
RightForeArm  20.6759 55.6832 15.0215
RightHand  1.13721 -15.0707 -8.20773
LeftShoulder1  0.00868267 0.651717 -8.13757
LeftArm  -21.1732 16.2394 -70.7848
LeftForeArm  25.6645 -20.9145 -3.85691
LeftHand  0.0594239 2.88752 1.9856
HEad  -5.12755 -15.3718 0.107228
RightUpLeg  -2.57277 -11.6334 2.22149
RightLeg  16.2689 18.0978 3.97404
RightFoot  -6.26739 -0.133176 -2.05485
RightToes  -26.4037 -0.121723 -0.228242
92
root  -1.54133 33.8617 11.3103 3.52667 7.49529 -2.70806
LeftUpLeg  -17.9646 16.353 4.80491
LeftLeg  3.54392 18.5443 -0.0442385
LeftFoot  13.2596 -0.517111 4.44677
LeftToes  -16.8813 1.92152e-006 4.03786e-008
Spine  2.1216 2.50481 0.543397
Spine1  4.05035 5.36569 0.791748
RightShoulder  0.0614462 4.52978 4.57772
RightArm  -18.1507 0.867158 64.3612
RightForeArm  20.9085 56.6753 15.6121
RightHand  1.12425 -14.9555 -8.1761
LeftShoulder1  0.00974983 0.554055 -8.13514
LeftArm  -21.158 16.4008 -70.3193
LeftForeArm  25.5294 -19.1596 -3.50611
LeftHand  0.0590913 2.98083 1.89645
HEad  -4.43615 -15.0149 0.288512
RightUpLeg  -2.10539 -10.1189 1.10093
RightLeg  17.2255 16.8206 3.99252
RightFoot  -7.08068 -0.15677 -2.15615
RightToes  -26.9153 -0.123267 -0.229965
93
root  -1.07374 33.8666 11.8543 3.6353 7.81123 -2.18219
LeftUpLeg  -17.0011 17.2944 3.77767
LeftLeg  3.20532 16.4547 -0.135322
LeftFoot  15.4159 -0.614807 4.54012
LeftToes  -19.0597 1.92152e-006 4.03786e-008
Spine  1.9161 2.24961 0.14891
Spine1  3.61875 4.83281 0.0491175
RightShoulder  0.0550841 4.49919 4.68556
RightArm  -18.1548 -0.588147 64.4052
RightForeArm  21.1583 57.6354 16.2158
RightHand  1.12576 -15.08 -8.11639
LeftShoulder1  0.0108377 0.521681 -8.10161
LeftArm  -21.0082 16.4539 -69.7686
LeftForeArm  25.4198 -17.7638 -3.23264
LeftHand  0.0606918 3.19103 1.84476
HEad  -3.66485 -14.9984 0.664185
RightUpLeg  -1.70189 -8.82978 -0.00549223
RightLeg  18.4179 15.2422 3.95928
RightFoot  -7.78769 -0.171754 -2.14561
RightToes  -27.3882 -0.126356 -0.23341
